<?xml version="1.0" encoding="iso-8859-1"?>
<!-- Generator: Adobe Illustrator 19.0.0, SVG Export Plug-In . SVG Version: 6.00 Build 0)  -->
<svg version="1.1" id="Layer_1" xmlns="http://www.w3.org/2000/svg" xmlns:xlink="http://www.w3.org/1999/xlink" x="0px" y="0px"
	 viewBox="0 0 512 512" style="enable-background:new 0 0 512 512;" xml:space="preserve">
<g>
	<path style="fill:#B58D5C;" d="M94.146,314.175l1.009-0.79c4.797-3.755,8.99-7.214,12.819-10.578l3.489,2.54
		c-3.293,7.598-7.465,14.052-11.501,20.293l-3.433,5.114L94.146,314.175z"/>
	<path style="fill:#B58D5C;" d="M109.433,304.468c-3.24,7.475-7.453,13.978-11.401,20.082c-0.044,0.066-0.088,0.133-0.133,0.199
		l-1.382-9.621C100.896,311.7,105.242,308.15,109.433,304.468z"/>
	<path style="fill:#B58D5C;" d="M285.82,325.87c-3.897-3.885-6.044-9.067-6.044-14.589v-42.012c0-0.94-0.221-1.878-0.639-2.714
		l-17.694-35.388c-1.041-2.078-3.132-3.369-5.455-3.369c-0.945,0-1.86,0.217-2.716,0.644c-1.448,0.723-2.528,1.972-3.042,3.514
		c-0.513,1.543-0.396,3.191,0.33,4.641l17.053,34.107v10.645l-1.872,0.291c-2.832,0.44-6.085,1.032-9.737,1.703l-0.135,0.024
		c-13.804,2.532-34.666,6.36-61.794,6.36c-34.829,0-66.491-16.234-67.823-16.925l-0.202-0.108c-0.21-0.106-0.425-0.194-0.707-0.296
		c-0.031-0.011-0.115-0.041-0.196-0.073l-0.252-0.066c-0.118-0.034-0.222-0.066-0.327-0.087c-0.086-0.017-0.154-0.029-0.211-0.042
		l-0.397-0.06c-0.052-0.001-0.112-0.006-0.173-0.011c-0.116-0.008-0.238-0.016-0.353-0.016c0,0-0.237,0-0.276,0
		c-0.118,0-0.245,0.009-0.37,0.018c0,0-0.086,0.008-0.17,0.013c-0.072,0.009-0.174,0.02-0.273,0.042l-0.114,0.023l-0.115,0.013
		l-0.098,0.02c-0.091,0.023-0.168,0.042-0.245,0.065c-0.238,0.063-0.375,0.106-0.513,0.157l-0.376,0.137c0.001,0,0.001,0,0.001,0
		c0.004,0-0.055,0.027-0.109,0.054c-0.148,0.069-0.21,0.101-0.28,0.138l-0.29,0.16l-0.19,0.115c0,0-0.232,0.158-0.284,0.192
		c-0.04,0.028-0.421,0.334-0.421,0.334c-0.067,0.062-0.135,0.123-0.203,0.19l-0.236,0.237c-0.028,0.027-0.28,0.32-0.331,0.385
		l-0.105,0.125c-12.424,16.362-33.76,31.895-50.906,44.379c-5.749,4.177-10.364,7.571-14.198,10.552l-3.566,2.776v-6.837l0.748-0.66
		c6.329-5.589,16.946-17.921,16.946-37.709c0-10.403-4.68-24.91-9.635-40.27c-6.372-19.771-14.264-44.263-8.822-54.101
		c11.27-20.361,51.389-23.4,74.302-23.4c24.277,0,63.095-12.243,104.19-25.205l0.155-0.049
		c43.324-13.68,88.126-27.826,116.821-27.826c18.742,0,38.264,3.193,53.56,8.758c19.687,7.157,32.508,17.812,38.108,31.672
		c0.743,1.825,2.332,3.188,4.253,3.641c11.119,2.629,39.898,13.019,39.545,29.327c-0.041,1.662,0.628,3.299,1.835,4.497
		c0.502,0.501,12.193,12.375,15.18,31.246l0.399,2.53l-2.56,0.027c-2.369,0.024-4.52,1.433-5.478,3.587
		c-1.369,3.061,0.008,6.666,3.065,8.04c5.319,2.368,5.478,5.451,5.296,10.284c0.001,0.017-0.002,0.115-0.007,0.211v1.381
		l-1.244,0.698c-3.366,1.644-10.792,2.394-16.266,2.394c-0.913,0-1.819-0.02-2.708-0.06c-0.092-0.004-0.184-0.007-0.275-0.007
		c-1.87,0-3.664,0.877-4.797,2.344c-5.987,7.687-14.33,11.58-24.806,11.58c-1.053,0-2.143-0.04-3.237-0.119
		c-9.757-0.71-17.575-4.339-17.65-4.376c-0.808-0.386-1.688-0.585-2.598-0.585c-1.622,0-3.151,0.634-4.303,1.786
		c-27.665,27.663-68.212,42.693-68.608,42.832c-1.177,0.435-2.196,1.242-2.918,2.324l-13.586,20.375l-4.617-4.637
		c-1.987-1.974-3.525-4.307-4.568-6.925l-0.157-0.393v-0.697l6.747-27.008l0.73-0.474c7.459-4.839,25.78-18.041,34.801-36.08
		c0.725-1.452,0.843-3.101,0.327-4.642c-0.515-1.542-1.598-2.788-3.052-3.513c-0.856-0.427-1.77-0.644-2.716-0.644
		c-2.321,0-4.406,1.291-5.442,3.367c-9.059,18.108-30.494,31.346-32.91,32.795c-1.504,0.866-2.547,2.244-2.942,3.831l-7.752,31.022
		c-0.453,1.795-1.381,3.43-2.685,4.732l-14.62,14.624L285.82,325.87z M458.367,202.367c-4.171,0-7.564,3.388-7.564,7.553
		c0,4.17,3.393,7.564,7.564,7.564c4.165,0,7.553-3.393,7.553-7.564C465.92,205.755,462.532,202.367,458.367,202.367z
		 M408.859,148.181c-3.353,0-6.082,2.729-6.082,6.082s2.729,6.082,6.082,6.082c1.177,0,2.228,0.745,2.616,1.854l6.835,20.525
		c0.829,2.488,3.152,4.16,5.776,4.16h26.54c3.353,0,6.082-2.729,6.082-6.082c0-3.353-2.729-6.082-6.082-6.082h-22.163l-5.435-16.332
		C420.986,152.285,415.293,148.181,408.859,148.181z"/>
	<path style="fill:#B58D5C;" d="M491.465,241.458c4.026,1.791,4.17,3.505,3.992,8.183c0,0.133-0.011,0.265-0.011,0.387
		c-2.92,1.427-10.992,2.422-17.903,2.112c-2.676-0.121-5.275,1.062-6.923,3.197c-6.115,7.851-14.918,11.423-26.131,10.605
		c-9.289-0.675-16.798-4.136-16.842-4.158c-3.174-1.515-6.944-0.863-9.432,1.626c-27.061,27.06-67.367,42.165-67.776,42.309
		c-1.648,0.608-3.053,1.725-4.026,3.185l-12.087,18.126l-2.709-2.721c-1.779-1.769-3.152-3.847-4.079-6.182v-0.011l6.469-25.888
		c7.431-4.82,26.275-18.346,35.575-36.946c2.046-4.09,0.387-9.079-3.716-11.125c-4.103-2.046-9.079-0.387-11.125,3.716
		c-9.234,18.455-31.903,31.781-32.113,31.913c-1.946,1.117-3.362,2.986-3.904,5.164l-7.752,31.02
		c-0.354,1.404-1.073,2.676-2.101,3.705l-13.061,13.059l-8.426-8.426c-3.482-3.472-5.396-8.105-5.396-13.026v-42.012
		c0-1.283-0.299-2.554-0.874-3.705l-17.693-35.387c-2.057-4.103-7.033-5.761-11.136-3.716c-4.09,2.046-5.749,7.033-3.705,11.125
		l16.82,33.639v8.228c-2.853,0.442-6.071,1.028-9.798,1.714c-13.745,2.521-34.513,6.347-61.528,6.347
		c-34.325,0-65.377-15.935-66.803-16.676c-0.022-0.011-0.044-0.022-0.066-0.033v-0.011c-0.023,0-0.033-0.011-0.055-0.022
		c-0.333-0.177-0.686-0.321-1.051-0.453c-0.1-0.033-0.2-0.077-0.3-0.112c-0.1-0.032-0.199-0.055-0.299-0.076
		c-0.156-0.044-0.31-0.088-0.464-0.122c-0.088-0.022-0.188-0.033-0.276-0.055c-0.177-0.023-0.344-0.055-0.521-0.077
		c-0.087-0.011-0.176-0.011-0.264-0.022c-0.177-0.012-0.365-0.023-0.542-0.023c-0.044,0-0.088-0.011-0.133-0.011
		c-0.044,0-0.088,0.011-0.144,0.011c-0.166,0-0.344,0.011-0.52,0.023c-0.101,0.011-0.2,0.011-0.289,0.022
		c-0.165,0.022-0.321,0.044-0.476,0.077c-0.1,0.011-0.209,0.033-0.321,0.055c-0.133,0.033-0.276,0.067-0.42,0.111
		c-0.221,0.056-0.431,0.122-0.641,0.2c-0.122,0.044-0.243,0.088-0.365,0.133c-0.111,0.044-0.232,0.1-0.343,0.155
		c-0.122,0.055-0.232,0.111-0.354,0.177c-0.1,0.055-0.199,0.111-0.299,0.165c-0.133,0.077-0.254,0.145-0.377,0.233
		c-0.088,0.055-0.176,0.121-0.264,0.176c-0.122,0.088-0.244,0.177-0.354,0.276c-0.088,0.067-0.166,0.133-0.254,0.2
		c-0.111,0.1-0.22,0.199-0.332,0.309c-0.076,0.077-0.155,0.156-0.232,0.232c-0.1,0.101-0.199,0.21-0.288,0.321
		c-0.077,0.088-0.155,0.177-0.232,0.276c-0.033,0.044-0.077,0.077-0.111,0.133c-12.217,16.1-33.416,31.537-50.457,43.945
		c-5.54,4.025-10.273,7.498-14.254,10.594v-1.316c6.159-5.441,17.693-18.445,17.693-39.368c0-10.749-4.733-25.423-9.742-40.949
		c-5.894-18.29-13.979-43.336-8.992-52.35c10.717-19.363,49.94-22.26,72.367-22.26c24.649,0,63.674-12.319,105.01-25.357
		c43.183-13.635,87.836-27.723,116.157-27.723c18.478,0,37.731,3.141,52.803,8.625c19.076,6.935,31.461,17.174,36.813,30.421
		c1.017,2.5,3.174,4.347,5.795,4.965c9.919,2.344,38.162,12.374,37.842,27.126c-0.055,2.289,0.874,4.512,2.488,6.115
		c0.133,0.133,11.655,11.711,14.553,30.022c-3.129,0.033-6.115,1.847-7.475,4.9C485.416,234.679,487.285,239.578,491.465,241.458z
		 M468.132,209.919c0-5.385-4.379-9.764-9.764-9.764s-9.776,4.379-9.776,9.764c0,5.385,4.39,9.776,9.776,9.776
		S468.132,215.305,468.132,209.919z M458.92,180.803c0-4.578-3.716-8.294-8.294-8.294h-20.568l-4.932-14.818
		c-2.344-7.011-8.88-11.722-16.267-11.722c-4.579,0-8.294,3.716-8.294,8.294s3.714,8.294,8.294,8.294
		c0.243,0,0.452,0.155,0.53,0.376l6.823,20.491c1.129,3.384,4.303,5.673,7.874,5.673h26.54
		C455.204,189.097,458.92,185.381,458.92,180.803z"/>
</g>
<g>
	<path style="fill:#3D484A;" d="M458.367,200.155c5.385,0,9.764,4.379,9.764,9.764c0,5.385-4.379,9.776-9.764,9.776
		s-9.776-4.39-9.776-9.776C448.592,204.534,452.982,200.155,458.367,200.155z"/>
	<path style="fill:#3D484A;" d="M450.626,172.509c4.578,0,8.294,3.716,8.294,8.294c0,4.578-3.716,8.294-8.294,8.294h-26.54
		c-3.571,0-6.746-2.289-7.874-5.673l-6.823-20.491c-0.077-0.221-0.288-0.376-0.53-0.376c-4.579,0-8.294-3.716-8.294-8.294
		s3.715-8.294,8.294-8.294c7.387,0,13.922,4.711,16.267,11.722l4.932,14.818H450.626z"/>
	<path style="fill:#3D484A;" d="M121.874,269.955c0.155-0.033,0.31-0.055,0.476-0.077c0.088-0.011,0.188-0.011,0.289-0.022
		c0.176-0.012,0.353-0.023,0.52-0.023c0.055,0,0.1-0.011,0.144-0.011s0.088,0.011,0.133,0.011c0.177,0,0.365,0.011,0.542,0.023
		c0.088,0.011,0.177,0.011,0.264,0.022c0.177,0.022,0.344,0.055,0.521,0.077c0.088,0.022,0.188,0.033,0.276,0.055
		c0.155,0.033,0.309,0.077,0.464,0.122c0.1,0.022,0.199,0.044,0.299,0.076c0.1,0.033,0.2,0.077,0.3,0.112
		c0.365,0.133,0.718,0.276,1.051,0.453c0.022,0.011,0.032,0.022,0.055,0.022v0.011c0.022,0.012,0.044,0.023,0.066,0.033
		c1.427,0.741,32.478,16.676,66.803,16.676c27.015,0,47.783-3.826,61.528-6.347c3.727-0.686,6.945-1.271,9.798-1.714v-8.228
		l-16.82-33.639c-2.046-4.09-0.387-9.079,3.705-11.125c4.103-2.046,9.079-0.387,11.136,3.716l17.693,35.387
		c0.575,1.15,0.874,2.421,0.874,3.705v42.011c0,4.921,1.913,9.554,5.396,13.026l8.426,8.426l13.06-13.059
		c1.03-1.028,1.747-2.3,2.101-3.705l7.752-31.02c0.542-2.178,1.958-4.047,3.904-5.164c0.21-0.133,22.88-13.458,32.113-31.913
		c2.046-4.103,7.022-5.761,11.125-3.716s5.761,7.033,3.716,11.125c-9.3,18.6-28.143,32.126-35.575,36.946l-6.469,25.888v0.011
		c0.929,2.333,2.3,4.412,4.079,6.182l2.709,2.721l12.087-18.126c0.973-1.46,2.378-2.577,4.026-3.185
		c0.409-0.144,40.716-15.249,67.776-42.309c2.488-2.488,6.258-3.141,9.432-1.626c0.044,0.022,7.553,3.482,16.842,4.158
		c11.213,0.818,20.016-2.754,26.131-10.605c1.648-2.135,4.246-3.318,6.923-3.197c6.911,0.31,14.984-0.686,17.903-2.112
		c0-0.121,0.011-0.253,0.011-0.387c0.177-4.678,0.033-6.392-3.992-8.183c-4.179-1.879-6.049-6.779-4.179-10.958
		c1.359-3.053,4.346-4.866,7.475-4.9c-2.897-18.313-14.42-29.89-14.553-30.022c-1.615-1.603-2.543-3.826-2.488-6.115
		c0.321-14.752-27.922-24.782-37.842-27.126c-2.621-0.619-4.777-2.466-5.795-4.965c-5.352-13.248-17.738-23.487-36.813-30.421
		c-15.072-5.485-34.325-8.625-52.803-8.625c-28.32,0-72.974,14.088-116.157,27.723c-41.338,13.039-80.363,25.358-105.012,25.358
		c-22.426,0-61.65,2.897-72.366,22.26c-4.987,9.013,3.097,34.06,8.992,52.35c5.008,15.526,9.741,30.2,9.741,40.949
		c0,20.922-11.534,33.927-17.693,39.368v1.316c3.981-3.096,8.714-6.569,14.254-10.594c17.041-12.407,38.24-27.845,50.46-43.946
		c0.032-0.055,0.076-0.088,0.111-0.133c0.077-0.1,0.155-0.188,0.232-0.276c0.088-0.111,0.188-0.22,0.288-0.321
		c0.077-0.076,0.156-0.155,0.232-0.232c0.112-0.111,0.221-0.209,0.332-0.309c0.088-0.067,0.166-0.133,0.254-0.2
		c0.111-0.1,0.232-0.188,0.354-0.276c0.088-0.055,0.176-0.121,0.264-0.176c0.122-0.088,0.244-0.156,0.377-0.233
		c0.1-0.055,0.199-0.111,0.299-0.165c0.122-0.067,0.232-0.122,0.354-0.177c0.111-0.055,0.232-0.111,0.343-0.155
		c0.122-0.044,0.243-0.088,0.365-0.133c0.21-0.077,0.42-0.144,0.641-0.2c0.144-0.043,0.288-0.076,0.42-0.111
		C121.665,269.988,121.774,269.966,121.874,269.955z M512,233.883c0,0,0,17.295,0,17.693c0,3.815-1.515,7.265-4.379,9.997
		c-6.425,6.148-19.286,7.177-26.706,7.21c-16.432,17.538-40.473,15.228-54.959,10.185c-25.402,23.566-57.836,37.576-67.202,41.314
		l-14.84,22.271v21.652l20.856,33.375c1.592,2.554,1.681,5.772,0.22,8.414c-1.459,2.632-4.246,4.268-7.254,4.268h-17.693
		c-4.058,0-7.52-2.93-8.183-6.934l-4.423-26.54c-0.076-0.442-0.111-0.907-0.111-1.36v-31.947l-7.441-7.442
		c-0.654-0.652-1.272-1.338-1.88-2.046l-18.324,18.335v11.876l20.856,33.375c1.592,2.554,1.681,5.772,0.22,8.414
		c-1.459,2.632-4.246,4.268-7.254,4.268h-17.693c-4.058,0-7.52-2.93-8.183-6.934l-4.423-26.54c-0.076-0.442-0.111-0.907-0.111-1.36
		v-31.947l-7.442-7.442c-6.613-6.613-10.251-15.404-10.251-24.76v-15.017c-2.046,0.343-4.324,0.762-6.801,1.216
		c-14.33,2.644-35.994,6.625-64.524,6.625c-26.164,0-50.017-7.973-63.419-13.502c-2.821,18.467-11.491,31.837-18.711,42.973
		c-5.153,7.94-9.61,14.828-9.821,20.766l0.985,6.9l30.852,35.265c2.145,2.456,2.654,5.927,1.316,8.891
		c-1.349,2.965-4.302,4.866-7.553,4.866h-17.693c-3.141,0-6.016-1.78-7.42-4.589l-13.27-26.54c-0.398-0.796-0.663-1.647-0.796-2.532
		l-7.154-50.082c-1.835,1.339-3.638,2.665-5.408,3.938c-9.167,6.679-21.575,15.714-24.008,19.463v14.287l20.856,33.375
		c1.591,2.554,1.681,5.772,0.22,8.414c-1.459,2.632-4.246,4.268-7.254,4.268H48.103c-4.058,0-7.52-2.93-8.183-6.934l-4.423-26.54
		c-0.076-0.442-0.111-0.907-0.111-1.36v-53.08c0-2.798,1.406-5.396,3.738-6.934c0.521-0.355,13.957-9.688,13.957-28.454
		c0-8.139-4.545-22.227-8.946-35.862c-7.951-24.661-16.178-50.172-7.719-65.465c2.477-4.479,5.818-8.471,10.009-11.976
		c-3.462-1.261-7.488-2.256-11.59-2.256c-9.72,0-18.246,8.526-18.246,18.246v8.847c0,9.997,2.123,17.981,4.39,26.429
		c2.19,8.205,4.457,16.687,4.457,26.651c0,20.237-9.389,38.461-9.787,39.224c-1.46,2.787-4.324,4.457-7.354,4.457
		c-0.652,0-1.316-0.077-1.979-0.243C2.61,294.106,0,290.778,0,286.963V189.65c0-18.888,15.946-34.834,34.834-34.834
		c12.74,0,24.162,5.96,28.951,8.847c14.873-5.883,34.745-8.847,59.516-8.847c22.095,0,61.705-12.496,100.011-24.594
		c44.388-14,90.28-28.486,121.155-28.486c11.954,0,35.442,1.25,58.465,9.621c21.918,7.973,36.968,20.038,44.786,35.895
		c3.074,0.885,7.453,2.277,12.308,4.28v-2.456c0-0.144-0.066-0.288-0.166-0.387l-6.258-6.259c-3.241-3.24-3.241-8.493,0-11.722
		c3.24-3.241,8.493-3.241,11.732,0l6.259,6.247c3.229,3.241,5.02,7.542,5.02,12.12v11.279c8.935,6.204,16.444,14.675,17.55,25.921
		C499.537,192.525,512,209.632,512,233.883z M98.032,324.55c3.947-6.105,8.161-12.606,11.401-20.082
		c-4.191,3.682-8.537,7.232-12.916,10.66l1.382,9.621C97.943,324.683,97.988,324.616,98.032,324.55z"/>
</g>
<g>
</g>
<g>
</g>
<g>
</g>
<g>
</g>
<g>
</g>
<g>
</g>
<g>
</g>
<g>
</g>
<g>
</g>
<g>
</g>
<g>
</g>
<g>
</g>
<g>
</g>
<g>
</g>
<g>
</g>
</svg>
