<?xml version="1.0" standalone="no"?><!DOCTYPE svg PUBLIC "-//W3C//DTD SVG 1.1//EN" "http://www.w3.org/Graphics/SVG/1.1/DTD/svg11.dtd"><svg class="icon" height="512" viewBox="0 0 1024 1024" version="1.1" xmlns="http://www.w3.org/2000/svg"><path d="M1018.985288 581.409836l-29.517267-97.587595v-17.127076c0-85.429695-69.492724-154.931628-154.912186-154.931629h-387.945613l17.362437-9.613961c15.817244-8.758478 28.915563-21.583574 37.877678-37.087687a15.014972 15.014972 0 0 0-0.016372-15.014972c-17.681708-30.54569-50.567699-49.520857-85.828785-49.520857-21.718651 0-42.303478 6.861268-59.530838 19.840884l-3.415796 2.573615-3.14462-2.899026a51.523467 51.523467 0 0 0-2.873443-2.471285l-4.795213-3.812839 4.597714-4.049222c21.768793-19.169595 34.254152-46.731324 34.254152-75.619258 0-8.260128-6.720052-14.980179-14.980179-14.98018s-14.980179 6.720052-14.98018 14.98018c0 39.051411-31.769564 70.820975-70.820975 70.820975H227.893872c-39.051411 0-70.820975-31.770588-70.820975-70.820975 0-8.260128-6.720052-14.980179-14.98018-14.98018s-14.980179 6.720052-14.980179 14.98018c0 28.907377 12.484336 56.469106 34.252105 75.618235l4.595668 4.043082-4.786003 3.815909a52.443419 52.443419 0 0 0-2.878561 2.454912l-3.14155 2.895956-3.414772-2.568498c-17.23964-12.968359-37.81935-19.823488-59.514466-19.823488-35.280528 0-68.174706 18.975167-85.84618 49.516764a15.040555 15.040555 0 0 0-0.001023 14.997575c17.663288 30.568203 50.557466 49.557696 85.84618 49.557696 15.811104 0 31.590486-3.854794 45.63434-11.146874l6.449899-3.349281 14.639419 106.172111-2.828419 1.757017c-15.002692 9.321296-23.959691 25.381064-23.959691 42.958394v17.373692c0 27.851325 22.659069 50.510394 50.510394 50.510394h15.482623v20.350491c0 47.345308 21.714558 90.738607 59.57484 119.056559l1.851161 1.384534 18.972097 231.480048c0.624217 7.707542 7.176446 13.745049 14.916734 13.745049h142.244678c7.866155 0 14.287401-5.912663 14.937201-13.750165l16.633842-203.175399h69.963445l1.445932 2.723017a143.057183 143.057183 0 0 0 5.879917 10.014075l0.810458 1.264806v55.391565c0 8.260128 6.721075 14.980179 14.981203 14.980179 8.260128 0 14.980179-6.720052 14.98018-14.980179v-22.308075l8.008394 5.436826a138.613988 138.613988 0 0 0 28.92682 15.028274l3.319605 1.250481v36.444027c0 8.260128 6.721075 14.980179 14.981203 14.980179 8.260128 0 14.980179-6.720052 14.980179-14.980179v-29.519314l5.497201 0.398066c0.224104 0.016373 1.165546 0.068562 3.920286 0.068561 7.574512 0 21.24179-0.38374 26.13831-1.077541l5.93313-0.840135-1.834788 127.446648c-0.045025 4.00829 1.524726 7.921413 4.317328 10.743691a15.049764 15.049764 0 0 0 10.662851 4.461615h146.065703c7.393387 0 13.609972-5.297656 14.785752-12.599969l29.163203-180.831508c0.125867-0.743944 0.189312-1.531889 0.189312-2.341325v-248.637823c0-21.589714-4.5312-42.419112-13.473873-61.917188-1.772366-3.88754-11.515265-20.697391-14.081717-24.300453a151.162792 151.162792 0 0 0-20.400632-23.081694l-11.159154-10.298554 15.119349 1.426489c64.482617 6.080485 113.108081 59.554374 113.108081 124.385938v17.127076l-29.518291 97.593736a14.979156 14.979156 0 0 0 2.303462 13.244652c2.823302 3.793396 7.320733 6.056949 12.032035 6.056949h60.3239c4.713348 0 9.210779-2.264577 12.031011-6.054903a15.006785 15.006785 0 0 0 2.302439-13.251815z m-878.568746-328.257185a55.68116 55.68116 0 0 0-0.738827 10.201339l0.051165 2.37407-1.778506 1.574869a68.912509 68.912509 0 0 1-45.726438 17.334807c-19.947308 0-38.943964-8.642844-52.120054-23.711028l-2.953262-3.376911 2.956331-3.375887c13.18223-15.053857 32.177863-23.688515 52.116985-23.688515 17.309224 0 33.856086 6.411013 46.591131 18.052145l2.050706 1.874697-0.449231 2.740414z m228.973971-4.611018c12.731976-11.643178 29.286-18.054191 46.611598-18.054191 19.924795 0 38.914288 8.633634 52.097541 23.687491l2.956332 3.374864-2.953262 3.377934c-13.176091 15.069207-32.165584 23.711028-52.100611 23.711028a69.079308 69.079308 0 0 1-45.738718-17.309224l-1.784646-1.574869 0.051166-2.379187c0.071631-3.377934-0.177032-6.815219-0.738827-10.214642l-0.453325-2.743484 2.052752-1.87572z m-192.997595-4.236488c5.315052-6.084579 12.685927-9.435906 20.752649-9.435906h113.913423c8.063653 0 15.433504 3.351328 20.760836 9.444093 5.301749 6.096858 7.609305 13.848403 6.497995 21.817911l-5.384638 39.136346-7.455809-9.30083c-2.76088-3.443425-6.836709-5.418406-11.181666-5.418407-7.862062 0-14.256702 6.386454-14.256702 14.237259 0 7.849782 6.395664 14.237259 14.256702 14.237259 2.99931 0 5.889127-0.942465 8.356318-2.727111l8.132214-5.860474v10.387581l-10.994402 79.658248H188.412672l-10.994402-79.678714v-10.463306l8.150634 5.949502a14.087856 14.087856 0 0 0 8.358365 2.733251c7.850805 0 14.237259-6.386454 14.237259-14.237259 0-7.850805-6.387477-14.237259-14.237259-14.237259-4.359284 0-8.432043 1.971911-11.17348 5.409196l-7.451716 9.341763-5.412266-39.156812c-1.11438-7.980765 1.193175-15.733333 6.503111-21.836331z m6.27696 244.611114c-11.33107 0-20.550035-9.218966-20.550035-20.551059v-17.373692c0-11.332093 9.218966-20.551058 20.550035-20.551059H325.558216c11.320836 0 20.530592 9.218966 20.530592 20.551059V468.3652c0 11.332093-9.209756 20.551058-20.530592 20.551059H182.669878z m124.606972 386.014634l-16.165168-197.600427 7.4159 2.549056a148.45103 148.45103 0 0 0 31.329543 7.093558l4.184299 0.478908 15.354709 187.478905h-42.119283z m390.101719-146.433071c-11.431354 3.992941-23.480784 6.01704-35.812647 6.017041-31.982412 0-62.2119-13.882172-82.93999-38.08848l-7.247055-8.462742H693.866582l1.515517 1.594311a145.205103 145.205103 0 0 0 23.694655 20.080337l6.559393 4.446266-6.744611 4.161786c-6.843872 4.222161-14.08581 7.67275-21.512967 10.251481z m60.247153 146.433071h-42.226731l1.749854-121.992425 2.920516-1.355881a139.744741 139.744741 0 0 0 31.149441-19.841907l8.593725-7.237845-2.186805 150.428058z m80.721463-483.406778c16.090467 21.351284 22.087041 53.628408 22.087041 68.957534v247.439532l-26.941606 167.009712h-45.884027l2.2656-157.682276c0.104377-7.250124-5.002944-13.525038-12.126178-14.917757-6.664793-1.278109-13.429871-3.269463-20.116153-5.922897-17.542538-6.992251-33.272801-18.411325-45.494147-33.030277a14.904455 14.904455 0 0 0-11.483543-5.373381H453.485817c-7.866155 0-14.287401 5.913687-14.936178 13.750165l-16.634865 203.1754h-42.426275l-16.653285-203.170283c-0.650823-7.841595-7.072069-13.755282-15.057951-13.755282h-0.169869l-0.169869-0.011256a5.341658 5.341658 0 0 0-0.364297-0.00921h-0.221034c-23.086811 0-45.471634-6.636141-64.732303-19.190061-33.818223-22.025643-54.008055-59.248406-54.008055-99.567693v-20.350491h97.444333c27.841092 0 50.490951-22.659069 50.490951-50.510394v-17.374716c0-17.576307-8.956999-33.636075-23.959691-42.958394l-2.827395-1.757016 9.223058-67.022463 5.188163 1.633196c13.531178 0.433882 252.005524 0.737804 378.022613 0.839112 22.037922 0 43.440371 7.740288 52.681849 12.344142 2.702552 1.237177 24.64633 11.81407 43.971468 37.455054z m119.680776 183.916776l16.45988-54.402027 16.45988 54.402027h-32.91976z" fill="" /><path d="M778.212596 413.770791c-2.876514-2.413979-10.295484-6.495948-10.295484-6.495947-8.144494-4.062526-16.971533-6.133697-26.221198-6.133698h-96.519264c-11.100826 0-20.107967 9.009188-20.107967 20.107967 0 11.099802 9.009188 20.107967 20.107967 20.107967h96.519264c7.41897 0 12.688997 4.121877 15.542998 8.043187 2.353604 3.217275 3.559059 8.224312 3.559059 11.080359 0 11.100826 9.007141 20.107967 20.107967 20.107967s20.107967-9.007141 20.107967-20.107967c0-8.626471-1.810229-16.951067-5.347799-24.652469-0.703011-1.587148-8.063653-14.195304-17.45351-22.057366z" fill="" /></svg>